<svg xmlns="http://www.w3.org/2000/svg" width="48" height="28" viewBox="0 0 48 28">
    <g fill="none" fill-rule="evenodd">
        <path fill="#A8A8A8" stroke="#373631" d="M36 3.5c5.799 0 10.5 4.701 10.5 10.5S41.799 24.5 36 24.5H15C9.201 24.5 4.5 19.799 4.5 14S9.201 3.5 15 3.5h21z"/>
        <g transform="matrix(-1 0 0 1 25 2)">
            <circle cx="12" cy="12" r="12" fill="#FFF" stroke="#373631"/>
            <ellipse cx="9.415" cy="7.673" fill="#000" rx="1.415" ry="1.673"/>
            <ellipse cx="16.49" cy="7.673" fill="#000" rx="1.415" ry="1.673"/>
            <path fill="#A8A8A8" stroke="#34332E" d="M8.05 17.711h9.805c.033-.205.05-.414.05-.627 0-2.426-2.217-4.392-4.953-4.392-2.735 0-4.952 1.966-4.952 4.392 0 .213.017.422.05.627z"/>
        </g>
    </g>
</svg>
