<svg xmlns="http://www.w3.org/2000/svg" width="36" height="36"><g fill="none" fill-rule="evenodd"><circle cx="18" cy="18" r="18" fill="#29ACE4"/><path fill="#FFF" stroke="#34332E" d="M25.6 15.196h-.01l-.06-.433c-.505-3.74-3.776-6.263-7.98-6.263-4.204 0-7.475 2.524-7.98 6.263l-.06.433H9.5v11.472a.987.987 0 0 0 1.974 0v-.569H23.9v.569a.987.987 0 0 0 1.974 0v-.746a.98.98 0 0 0-.182-.57l-.092-.13V15.195z"/><g transform="translate(15.3 13.478)"><ellipse cx=".771" cy=".913" fill="#000" rx="1" ry="1"/><ellipse cx="4.629" cy=".913" fill="#000" rx="1" ry="1"/><path fill="#FCDC05" stroke="#34332E" d="M.027 3.652h5.346c.018.112.027.226.027.343 0 1.323-1.209 2.396-2.7 2.396S0 5.318 0 3.995c0-.117.01-.231.027-.343z"/></g><path d="M27.5 23.5h3m-25 0h3m21.9-3h3.2m-32.2 0h3.2" stroke="#FFF" stroke-linecap="square"/></g></svg>